<svg xmlns="http://www.w3.org/2000/svg" width="1280" height="640" viewBox="0 0 1280 640" role="img" aria-labelledby="title description">
  <title id="title">openOceanRoute — Independent submarine cable route planning</title>
  <desc id="description">Original deep ocean artwork with a stylized cable route and seabed contours. MIT · Windows x64 · 0.12.1. This is decorative project artwork, not an engineering result or certification.</desc>
  <defs>
    <linearGradient id="ocean" x1="0" y1="0" x2="1" y2="1"><stop stop-color="#081b2e"/><stop offset="1" stop-color="#164354"/></linearGradient>
    <linearGradient id="cable" x1="0" y1="1" x2="1" y2="0"><stop stop-color="#53c9bf"/><stop offset="1" stop-color="#b9f2db"/></linearGradient>
    <linearGradient id="shade" x1="0" x2="1"><stop stop-color="#081b2e" stop-opacity=".85"/><stop offset="1" stop-color="#081b2e" stop-opacity="0"/></linearGradient>
    <pattern id="grid" width="48" height="48" patternUnits="userSpaceOnUse"><path d="M48 0H0V48" fill="none" stroke="#85adbd" stroke-opacity=".1"/></pattern>
  </defs>
  <rect width="1280" height="640" fill="url(#ocean)"/>
  <rect x="600" width="680" height="640" fill="url(#grid)"/>
  <g fill="none" stroke="#78a5b5" stroke-width="1.5" opacity=".26">
    <path d="M566 407C710 346 818 430 961 374S1157 270 1329 311"/>
    <path d="M565 431C716 366 832 455 976 400S1175 294 1329 335"/>
    <path d="M565 455C722 387 846 480 991 426S1193 318 1329 359"/>
    <path d="M565 479C728 408 860 505 1006 452S1211 342 1329 383"/>
    <path d="M566 503C734 429 874 530 1021 478S1229 366 1329 407"/>
    <path d="M636 242C759 188 850 258 982 219S1167 122 1327 173"/>
    <path d="M636 265C770 210 863 280 997 242S1183 144 1327 198"/>
    <path d="M636 288C781 232 876 302 1012 265S1199 166 1327 223"/>
  </g>
  <path d="M729 521L832 432C873 397 911 410 944 374L1024 286C1063 243 1110 260 1145 216L1215 123" fill="none" stroke="#69d5c7" stroke-width="26" opacity=".08"/>
  <path d="M729 521L832 432C873 397 911 410 944 374L1024 286C1063 243 1110 260 1145 216L1215 123" fill="none" stroke="url(#cable)" stroke-width="5" stroke-linecap="round"/>
  <g fill="#14384a" stroke="#a0e9d8" stroke-width="3"><circle cx="729" cy="521" r="9"/><circle cx="832" cy="432" r="9"/><circle cx="944" cy="374" r="9"/><circle cx="1024" cy="286" r="9"/><circle cx="1145" cy="216" r="9"/><circle cx="1215" cy="123" r="9"/></g>
  <circle cx="1024" cy="286" r="34" fill="none" stroke="#a0e9d8" stroke-opacity=".25"/>
  <rect width="745" height="640" fill="url(#shade)"/>
  <rect x="78" y="88" width="68" height="68" rx="18" fill="#173e4c" stroke="#4c9297" stroke-opacity=".8"/>
  <path d="M93 137L105 124Q112 117 120 122L132 106" fill="none" stroke="#8ae3d0" stroke-width="3" stroke-linecap="round"/>
  <g fill="#173e4c" stroke="#8ae3d0" stroke-width="2.5"><circle cx="93" cy="137" r="4.5"/><circle cx="132" cy="106" r="4.5"/></g>
  <g font-family="Arial, Helvetica, sans-serif">
    <text x="78" y="263" fill="#f5fbfd" font-size="73" font-weight="700" letter-spacing="-2.5">openOceanRoute</text>
    <text x="81" y="332" fill="#c2e1e7" font-size="32" font-weight="400"><tspan x="81">Independent submarine</tspan><tspan x="81" dy="44">cable route planning</tspan></text>
    <path d="M81 426H143" stroke="#77d9cb" stroke-width="4" stroke-linecap="round"/>
    <text x="81" y="493" fill="#9ee1d7" font-size="23" letter-spacing="1">MIT · Windows x64 · 0.12.1</text>
  </g>
  <rect x="0" y="624" width="1280" height="16" fill="#4dc1b6" opacity=".6"/>
</svg>
